<svg width="1600" height="900" viewBox="0 0 1600 900" fill="none" xmlns="http://www.w3.org/2000/svg"><defs><linearGradient id="bg" x1="0" y1="0" x2="1600" y2="900"><stop stop-color="#07111F"/><stop offset="1" stop-color="#0D1327"/></linearGradient><radialGradient id="a" cx="0" cy="0" r="1" gradientUnits="userSpaceOnUse" gradientTransform="translate(280 160) rotate(22) scale(420 240)"><stop stop-color="#0EA5E9" stop-opacity="0.6"/><stop offset="1" stop-color="#0EA5E9" stop-opacity="0"/></radialGradient><radialGradient id="b" cx="0" cy="0" r="1" gradientUnits="userSpaceOnUse" gradientTransform="translate(1260 200) rotate(-18) scale(380 220)"><stop stop-color="#8B5CF6" stop-opacity="0.6"/><stop offset="1" stop-color="#8B5CF6" stop-opacity="0"/></radialGradient><linearGradient id="accent" x1="0" y1="0" x2="1" y2="1"><stop stop-color="#8B5CF6"/><stop offset="1" stop-color="#0EA5E9"/></linearGradient></defs><rect width="1600" height="900" fill="url(#bg)"/><ellipse cx="280" cy="160" rx="420" ry="240" fill="url(#a)"/><ellipse cx="1260" cy="200" rx="380" ry="220" fill="url(#b)"/><text x="88" y="110" fill="#67E8F9" font-family="Inter, Arial, sans-serif" font-size="18" letter-spacing="4">DEVELOPER CAREER OPERATING SYSTEM</text><text x="84" y="240" fill="white" font-family="Inter, Arial, sans-serif" font-size="84" font-weight="700">Orbit turns your</text><text x="84" y="326" fill="white" font-family="Inter, Arial, sans-serif" font-size="84" font-weight="700">job search into a</text><text x="84" y="412" fill="white" font-family="Inter, Arial, sans-serif" font-size="84" font-weight="700">measured pipeline.</text><text x="88" y="492" fill="#A7B8D5" font-family="Inter, Arial, sans-serif" font-size="28">Applications, stages, interview loops, and weekly goals live in one serious dashboard.</text><g><rect x="88" y="600" width="280" height="164" rx="26" fill="rgba(255,255,255,0.05)" stroke="rgba(255,255,255,0.12)"/><text x="118" y="642" fill="#93C5FD" font-size="14" font-family="Inter, Arial, sans-serif" letter-spacing="3">PIPELINE</text><text x="118" y="714" fill="white" font-size="58" font-family="Inter, Arial, sans-serif" font-weight="700">42</text><text x="118" y="750" fill="#B7C6E0" font-size="22" font-family="Inter, Arial, sans-serif">roles tracked with context</text></g><g><rect x="400" y="600" width="280" height="164" rx="26" fill="rgba(255,255,255,0.05)" stroke="rgba(255,255,255,0.12)"/><text x="430" y="642" fill="#93C5FD" font-size="14" font-family="Inter, Arial, sans-serif" letter-spacing="3">INTERVIEWS</text><text x="430" y="714" fill="white" font-size="58" font-family="Inter, Arial, sans-serif" font-weight="700">6</text><text x="430" y="750" fill="#B7C6E0" font-size="22" font-family="Inter, Arial, sans-serif">active loops this week</text></g><g><rect x="712" y="600" width="280" height="164" rx="26" fill="rgba(255,255,255,0.05)" stroke="rgba(255,255,255,0.12)"/><text x="742" y="642" fill="#93C5FD" font-size="14" font-family="Inter, Arial, sans-serif" letter-spacing="3">FOCUS</text><text x="742" y="714" fill="white" font-size="58" font-family="Inter, Arial, sans-serif" font-weight="700">A</text><text x="742" y="750" fill="#B7C6E0" font-size="22" font-family="Inter, Arial, sans-serif">weekly execution discipline</text></g><g><rect x="1080" y="130" width="420" height="250" rx="32" fill="rgba(255,255,255,0.06)" stroke="rgba(255,255,255,0.12)"/><text x="1120" y="178" fill="white" font-family="Inter, Arial, sans-serif" font-size="28" font-weight="700">Search command center</text><rect x="1120" y="228" width="320" height="12" rx="6" fill="rgba(255,255,255,0.08)"/><rect x="1120" y="228" width="268" height="12" rx="6" fill="url(#accent)"/><rect x="1120" y="268" width="320" height="12" rx="6" fill="rgba(255,255,255,0.08)"/><rect x="1120" y="268" width="212" height="12" rx="6" fill="url(#accent)"/><rect x="1120" y="308" width="320" height="12" rx="6" fill="rgba(255,255,255,0.08)"/><rect x="1120" y="308" width="290" height="12" rx="6" fill="url(#accent)"/></g></svg>
